<?xml version="1.0" standalone="no"?>
<!DOCTYPE svg PUBLIC "-//W3C//DTD SVG 20010904//EN"
 "http://www.w3.org/TR/2001/REC-SVG-20010904/DTD/svg10.dtd">
<svg version="1.0" xmlns="http://www.w3.org/2000/svg"
 width="700.000000pt" height="700.000000pt" viewBox="0 0 700.000000 700.000000"
 preserveAspectRatio="xMidYMid meet">
<metadata>
Created by potrace 1.11, written by Peter Selinger 2001-2013
</metadata>
<g transform="translate(0.000000,700.000000) scale(0.100000,-0.100000)"
fill="#000000" stroke="none">
<path d="M1975 6492 c-3 -3 -5 -37 -5 -77 l0 -71 1750 0 1750 0 0 77 0 76
-1745 0 c-960 0 -1747 -3 -1750 -5z"/>
<path d="M1970 5985 c0 -41 3 -75 8 -76 20 -3 2589 -4 2602 -1 14 3 17 48 11
140 -1 9 -270 12 -1311 12 l-1310 0 0 -75z"/>
<path d="M557 5911 c108 -135 123 -150 161 -157 90 -16 258 -56 332 -80 235
-74 361 -194 490 -467 80 -171 79 -165 64 -227 -12 -48 -100 -446 -109 -489
-6 -27 -214 -971 -235 -1061 -10 -47 -21 -96 -24 -110 -2 -14 -25 -117 -51
-230 -74 -329 -86 -383 -92 -415 -3 -16 -20 -97 -39 -180 -32 -137 -59 -259
-70 -310 -38 -185 -150 -669 -160 -694 -23 -55 -85 -129 -123 -147 -54 -26
-222 -69 -263 -68 -36 1 -37 -1 -67 -68 -17 -37 -31 -69 -31 -71 0 -1 269 -2
599 -2 l598 0 -34 67 -34 68 -66 0 c-104 0 -168 43 -195 131 -14 48 -12 61 69
389 30 124 57 236 59 250 3 14 14 59 24 100 10 41 21 86 24 100 2 14 25 111
51 215 26 105 48 199 51 209 3 17 78 331 179 751 53 220 109 453 161 673 27
111 51 202 54 202 5 0 153 -369 240 -600 10 -25 158 -403 329 -840 172 -437
339 -862 371 -945 44 -114 263 -672 351 -894 12 -29 11 -30 42 49 59 153 241
618 252 645 7 17 59 147 115 290 57 143 217 548 357 900 140 352 275 692 300
755 24 63 50 129 57 145 8 17 26 62 40 100 15 39 34 84 42 102 8 17 14 34 14
38 0 3 8 25 18 48 11 23 34 79 52 125 18 45 33 82 34 82 2 0 1 -204 0 -452 -2
-249 -5 -856 -8 -1348 -5 -933 -6 -964 -49 -1039 -68 -119 -146 -171 -259
-171 l-68 0 -35 -70 c-19 -38 -35 -71 -35 -72 0 -6 1496 -1 1525 5 17 4 50 9
75 12 75 9 227 53 312 90 182 79 353 225 466 398 123 190 184 411 185 672 0
62 -10 225 -17 260 -2 11 -7 40 -10 65 -7 48 -45 186 -71 258 -105 288 -333
528 -604 636 l-80 32 46 29 c62 39 155 127 208 195 105 137 152 248 201 475 3
17 8 109 9 205 5 234 -24 390 -101 544 -68 135 -150 238 -265 329 -126 102
-238 154 -424 201 -59 14 -84 19 -194 31 -59 7 -1229 10 -1236 3 -2 -2 16 -35
41 -74 39 -64 48 -72 81 -77 63 -8 154 -48 193 -83 44 -40 88 -133 96 -201 4
-41 -1 -63 -31 -133 -20 -47 -47 -112 -60 -145 -12 -33 -31 -80 -42 -105 -12
-25 -58 -137 -103 -250 -100 -248 -198 -488 -210 -515 -5 -11 -25 -60 -45
-108 -20 -48 -41 -100 -47 -115 -6 -15 -12 -29 -13 -32 -1 -3 -7 -18 -14 -35
-7 -16 -62 -151 -122 -300 -60 -148 -114 -279 -119 -290 -5 -11 -52 -123 -103
-250 -163 -399 -285 -699 -297 -730 l-12 -30 -23 50 c-13 28 -81 190 -150 360
-70 171 -134 326 -142 345 -8 19 -19 44 -24 55 -11 26 -285 694 -314 765 -174
430 -547 1324 -578 1385 -76 149 -210 335 -327 455 -83 85 -261 200 -395 255
-80 34 -260 88 -326 99 -19 3 -45 8 -59 11 -14 3 -61 12 -105 20 -44 7 -96 17
-115 20 -19 4 -68 12 -108 19 l-72 13 37 -46z m4793 -640 c321 -98 485 -389
474 -841 -4 -160 -4 -166 -40 -330 -12 -58 -69 -209 -97 -258 -60 -107 -159
-192 -260 -224 -65 -20 -171 -35 -265 -37 -53 -1 -98 -4 -100 -5 -1 -2 23 -31
55 -65 l58 -61 80 -1 c77 -2 218 -27 280 -50 192 -72 273 -132 393 -291 99
-131 176 -334 199 -525 9 -74 10 -299 1 -383 -29 -280 -136 -490 -315 -622
-73 -54 -160 -90 -269 -113 -77 -16 -194 -18 -619 -12 l-100 2 -2 60 c-1 53
-6 521 -18 1725 -11 1053 -17 1678 -19 1850 -2 107 -1 198 1 202 2 3 112 5
246 4 220 -2 249 -4 317 -25z"/>
<path d="M2660 5620 l-35 -5 0 -72 -1 -73 548 0 548 0 0 75 0 75 -32 1 c-220
3 -1002 3 -1028 -1z"/>
<path d="M2629 5180 c-4 -16 -5 -127 -1 -137 3 -10 144 -13 656 -13 l652 0 2
75 c1 54 -2 75 -11 76 -41 4 -1297 3 -1298 -1z"/>
<path d="M2627 4736 c-3 -9 -2 -119 2 -137 0 -3 295 -5 654 -5 l652 1 0 75 0
75 -652 1 c-470 1 -653 -2 -656 -10z"/>
</g>
</svg>
